# xmcd
#
# Track frame offsets:
#	150
#	15874
#	30511
#	53261
#	64384
#	80548
#	103092
#
# Disc length: 1625 seconds
#
# Revision: 0
# Processed by: cddbd v1.4PL0 Copyright (c) Steve Scherf et al.
# Submitted via: audiograbber 1.81.00
#
DISCID=47065707
DTITLE=Luna Pop - squerz? special2000 disco2
DYEAR=2000
DGENRE=pop
TTITLE0=50special
TTITLE1=la fiera dei sogni
TTITLE2=niente di più
TTITLE3=questo pianoforte
TTITLE4=vorrei
TTITLE5=walter ogni sabato è in trip
TTITLE6=un giorno migliore
EXTD=
EXTT0=
EXTT1=
EXTT2=
EXTT3=
EXTT4=
EXTT5=
EXTT6=
PLAYORDER=
